<?xml version="1.0" standalone="no"?>
<!DOCTYPE svg PUBLIC "-//W3C//DTD SVG 20010904//EN"
 "http://www.w3.org/TR/2001/REC-SVG-20010904/DTD/svg10.dtd">
<svg version="1.0" xmlns="http://www.w3.org/2000/svg"
 width="300.000000pt" height="200.000000pt" viewBox="0 0 300.000000 200.000000"
 preserveAspectRatio="xMidYMid meet">
<metadata>
Created by potrace 1.10, written by Peter Selinger 2001-2011
</metadata>
<g transform="translate(0.000000,200.000000) scale(0.100000,-0.100000)"
fill="#000000" stroke="none">
<path d="M328 1755 c-14 -8 -36 -35 -48 -61 -19 -39 -22 -56 -17 -110 4 -36 9
-69 12 -74 4 -6 46 -10 96 -10 l89 0 0 61 c0 82 -17 144 -50 179 -31 34 -43
36 -82 15z m83 -51 c15 -24 23 -58 27 -104 5 -78 5 -78 -87 -70 -53 5 -56 7
-61 35 -11 58 5 127 34 152 38 32 61 29 87 -13z"/>
<path d="M2563 1730 c-5 -20 -11 -20 -309 -20 -372 0 -344 12 -344 -149 0 -61
4 -112 9 -115 12 -8 21 18 22 67 0 23 4 60 8 82 l9 40 1 -37 c2 -67 6 -68 256
-68 207 0 270 -8 214 -25 -13 -4 -25 -2 -29 5 -6 10 -13 9 -29 -2 -18 -13 -19
-17 -6 -21 10 -4 15 0 16 11 0 10 3 12 6 5 2 -7 11 -13 19 -13 8 0 14 -4 14
-10 0 -5 -5 -10 -11 -10 -5 0 -7 -4 -4 -10 3 -5 1 -18 -5 -27 -11 -17 -11 -17
-6 0 5 14 1 16 -22 11 -15 -4 -29 -8 -31 -10 -2 -2 -11 1 -18 8 -11 9 -16 9
-22 -1 -6 -9 -10 -5 -13 13 -3 14 -1 26 3 26 5 0 9 3 9 8 0 4 -14 8 -30 9 -17
1 -30 -3 -30 -8 0 -6 7 -9 14 -6 18 7 32 -31 17 -46 -7 -7 -14 -7 -24 1 -10 9
-17 8 -26 -1 -11 -10 -12 -8 -6 11 4 13 2 22 -4 22 -6 0 -11 -9 -11 -19 0 -18
-21 -23 -36 -8 -4 4 -14 1 -22 -6 -13 -10 -14 -8 -8 11 4 13 3 22 -3 22 -5 0
-11 -10 -13 -22 -3 -19 -9 -21 -64 -22 -81 -1 -94 -13 -94 -87 0 -90 -12 -87
356 -89 205 0 321 3 334 10 14 8 20 21 20 47 0 20 7 44 16 54 10 11 14 31 12
57 l-3 40 -24 -19 c-18 -15 -21 -23 -13 -31 9 -9 12 -8 12 4 0 9 5 20 10 23
13 8 13 -35 0 -55 -9 -13 -12 -12 -25 4 -21 28 -46 29 -74 3 l-25 -22 18 29
c13 20 15 31 7 39 -8 8 -11 8 -11 0 0 -6 -8 -10 -17 -8 -10 2 -26 4 -35 4 -13
1 -16 8 -11 35 3 19 1 36 -6 40 -27 17 -5 26 67 26 89 0 102 8 102 60 0 24 6
39 20 47 19 12 19 8 19 -207 1 -207 -1 -222 -19 -240 -11 -11 -32 -21 -47 -21
-116 -6 -128 -4 -146 16 -18 20 -18 20 -11 -5 5 -20 4 -22 -6 -13 -7 6 -19 9
-26 6 -10 -4 -12 0 -7 13 6 17 5 17 -10 5 -12 -9 -17 -10 -17 -2 0 7 -4 10
-10 6 -5 -3 -6 -13 -3 -23 6 -14 4 -15 -9 -4 -13 10 -17 10 -21 0 -3 -8 -6 -6
-6 6 -1 15 -4 16 -15 7 -11 -9 -15 -9 -19 1 -4 9 -6 9 -6 -2 -1 -9 -10 -16
-21 -16 -13 0 -19 5 -16 13 3 7 1 13 -3 13 -5 0 -12 -6 -14 -12 -3 -8 -6 -6
-6 5 -1 10 6 20 14 23 8 4 15 10 15 16 0 5 -6 6 -12 1 -7 -4 -22 -7 -33 -5
-19 2 -19 1 -1 -6 14 -6 16 -11 7 -16 -7 -5 -10 -13 -8 -20 3 -6 -6 -11 -19
-11 -15 0 -22 5 -20 12 3 7 1 15 -4 18 -6 4 -10 0 -10 -7 0 -10 -2 -10 -9 1
-6 9 -11 10 -15 2 -4 -6 -5 -14 -3 -18 3 -5 -5 -9 -18 -9 -15 -1 -22 3 -19 11
3 7 1 16 -4 19 -5 3 -12 -3 -15 -14 -4 -15 -11 -19 -29 -16 -12 3 -44 5 -70 5
-64 1 -78 18 -78 92 0 46 -3 59 -15 59 -12 0 -15 -14 -15 -70 0 -117 -27 -110
415 -110 362 0 376 1 395 20 19 19 20 33 20 265 0 228 -1 246 -19 264 -11 11
-21 27 -23 38 -3 15 -14 19 -66 21 -57 3 -64 1 -69 -18z m69 -26 c7 3 24 13
38 23 l25 17 -24 -27 c-23 -25 -23 -28 -8 -45 10 -10 17 -23 17 -28 -1 -5 -10
2 -21 15 -25 30 -57 34 -70 9 -5 -10 -15 -18 -21 -18 -6 0 -2 11 11 23 19 21
20 25 6 37 -8 7 -15 17 -15 23 0 6 11 0 24 -13 14 -12 31 -20 38 -16z m-80
-46 c3 -20 9 -23 51 -23 l47 0 0 -42 0 -43 -335 0 -335 0 0 65 0 65 284 0 285
0 3 -22z m-64 -168 c12 0 13 -3 5 -11 -6 -6 -9 -17 -7 -23 2 -6 -6 -11 -21
-11 -15 0 -23 5 -21 11 2 6 -1 17 -7 23 -8 8 -7 11 6 11 9 0 17 6 18 13 0 10
2 10 6 0 2 -7 12 -13 21 -13z m64 -108 c2 -22 9 -28 36 -30 18 -2 39 2 47 8
17 14 22 1 17 -51 l-4 -39 -334 0 -334 0 0 63 c0 35 3 67 7 70 3 4 131 7 284
6 l278 -1 3 -26z"/>
<path d="M2043 1605 c1 -27 5 -35 19 -35 14 0 18 8 18 35 0 28 -4 35 -19 35
-15 0 -19 -7 -18 -35z"/>
<path d="M2258 1623 c50 -2 134 -2 185 0 50 1 9 3 -93 3 -102 0 -143 -2 -92
-3z"/>
<path d="M2273 1593 c48 -2 126 -2 175 0 48 1 8 3 -88 3 -96 0 -136 -2 -87 -3z"/>
<path d="M2053 1362 c-18 -12 -13 -62 7 -62 12 0 17 9 18 30 1 32 -8 43 -25
32z"/>
<path d="M1340 1719 c-44 -27 -57 -44 -72 -94 -12 -40 -36 -75 -50 -75 -3 0
-9 8 -12 18 -5 14 -15 16 -63 13 -47 -3 -53 -5 -35 -12 20 -8 23 -15 20 -46
-2 -22 2 -38 10 -41 8 -2 12 10 12 42 0 36 4 46 16 46 23 0 43 -29 44 -62 0
-16 5 -28 10 -28 6 0 10 11 10 24 0 13 9 34 20 47 l19 24 1 -22 c0 -34 56 -91
100 -103 39 -10 96 -4 106 12 3 5 21 -3 40 -17 36 -28 43 -20 24 29 -7 18 -5
36 6 63 54 128 -88 253 -206 182z m127 -39 c1 -8 -14 -28 -33 -44 -34 -28 -37
-28 -75 -16 -52 17 -57 27 -28 56 20 20 33 23 79 21 40 -1 55 -6 57 -17z m41
-43 c9 -10 -4 -28 -53 -77 l-65 -64 -45 44 c-40 39 -43 46 -30 59 13 13 18 12
45 -14 l31 -29 47 47 c51 51 55 53 70 34z m8 -104 c-4 -17 -17 -33 -33 -40
-29 -14 -53 -17 -53 -7 0 10 82 85 87 80 3 -3 2 -17 -1 -33z"/>
<path d="M693 1579 c-18 -6 -23 -16 -23 -42 0 -39 21 -62 49 -54 10 2 26 0 35
-5 10 -6 16 -5 16 2 0 5 -3 10 -7 10 -5 0 -8 19 -8 41 0 46 -22 63 -62 48z
m45 -43 c3 -23 0 -28 -13 -22 -10 4 -14 2 -9 -5 4 -7 1 -10 -7 -7 -30 10 -22
72 8 66 11 -2 19 -14 21 -32z"/>
<path d="M788 1584 c-14 -13 -9 -81 7 -94 8 -7 25 -10 39 -6 20 5 25 13 28 52
3 44 -2 61 -16 47 -3 -3 -6 -24 -6 -45 0 -32 -3 -39 -17 -36 -13 2 -19 16 -23
47 -3 23 -8 39 -12 35z"/>
<path d="M896 1557 c-23 -56 -28 -77 -18 -77 6 0 12 7 16 15 7 20 36 19 52 -2
11 -15 13 -15 13 -3 1 18 -36 100 -43 100 -3 0 -12 -15 -20 -33z"/>
<path d="M980 1536 l0 -56 35 0 c19 0 35 5 35 10 0 6 -11 10 -25 10 -22 0 -25
4 -25 39 0 22 -4 43 -10 46 -6 4 -10 -15 -10 -49z"/>
<path d="M1067 1583 c-11 -10 -8 -103 3 -103 6 0 10 25 10 55 0 56 -1 60 -13
48z"/>
<path d="M2141 1507 c-13 -13 -14 -27 -2 -27 5 0 12 8 14 18 4 15 5 15 6 -2 1
-12 6 -16 16 -12 8 3 15 1 15 -3 0 -5 -6 -11 -12 -14 -7 -2 -9 -8 -5 -13 4 -5
12 -2 17 6 14 22 13 26 -14 43 -17 12 -26 13 -35 4z"/>
<path d="M2592 1448 c21 -31 29 -31 63 -3 29 23 29 24 7 25 -13 0 -20 -4 -17
-10 11 -18 -27 -24 -40 -7 -18 25 -30 20 -13 -5z"/>
<path d="M1802 1444 c-12 -8 -22 -22 -22 -30 0 -17 -2 -17 -49 -3 -30 9 -44 8
-76 -6 -22 -10 -52 -17 -68 -16 -20 2 -37 -7 -63 -33 -35 -35 -36 -39 -32 -92
3 -33 11 -62 21 -72 16 -15 17 -13 17 31 0 41 3 47 21 47 11 0 17 5 14 10 -4
6 -11 8 -16 5 -17 -11 -9 15 11 35 27 27 40 25 40 -5 0 -14 3 -25 8 -25 4 0
29 -21 55 -45 37 -35 53 -44 71 -39 27 6 56 -17 56 -46 0 -10 -12 -27 -26 -37
-15 -11 -25 -27 -23 -37 4 -15 10 -13 50 12 42 27 46 33 56 87 5 31 7 71 4 88
-6 28 -3 33 24 47 26 13 30 21 33 62 3 39 -1 49 -20 62 -28 20 -57 20 -86 0z
m72 -50 c4 -11 -7 -31 -30 -56 -28 -31 -34 -45 -29 -65 3 -14 3 -33 0 -44 -6
-18 -8 -18 -28 -4 -12 8 -31 15 -42 15 -31 0 -82 36 -100 69 -20 39 -20 38 16
56 21 11 43 14 72 10 35 -5 48 -3 67 14 30 25 66 27 74 5z"/>
<path d="M453 1365 c0 -38 2 -53 4 -32 2 20 2 52 0 70 -2 17 -4 1 -4 -38z"/>
<path d="M1000 1380 c-288 -5 -305 -6 -308 -24 -4 -18 6 -18 310 -11 187 4
318 11 326 17 18 15 15 28 -5 26 -10 -2 -155 -5 -323 -8z"/>
<path d="M655 1301 c-6 -5 -26 -11 -45 -13 -34 -3 -35 -4 -38 -50 l-3 -48 45
0 46 0 0 48 c0 26 5 53 12 60 7 7 8 12 2 12 -5 0 -14 -4 -19 -9z m-25 -41
c-12 -23 -26 -26 -33 -7 -3 7 -6 6 -6 -5 -2 -28 21 -32 40 -7 l19 24 0 -32 c0
-31 -2 -33 -35 -33 -33 0 -35 2 -35 34 0 34 9 44 43 45 15 1 16 -2 7 -19z"/>
<path d="M966 1283 c-241 -3 -276 -8 -276 -35 0 -13 621 1 638 15 25 20 10 27
-50 25 -35 -2 -175 -4 -312 -5z"/>
<path d="M2390 1219 c0 -9 32 -16 53 -11 30 6 18 19 -18 18 -19 -1 -35 -4 -35
-7z"/>
<path d="M1046 1182 c37 -33 259 -46 288 -16 9 8 16 17 16 20 0 2 -71 4 -157
4 -86 0 -153 -4 -147 -8z"/>
<path d="M701 1167 c-17 -21 -3 -27 66 -27 36 0 72 -4 82 -10 13 -6 201 -40
226 -40 1 0 0 11 -3 25 -3 20 -10 25 -35 25 -17 0 -27 3 -24 7 4 3 -1 12 -11
19 -25 19 -285 19 -301 1z m284 -7 c18 -8 18 -9 -5 -8 -14 0 -38 4 -55 8 l-30
8 35 0 c19 0 44 -3 55 -8z"/>
<path d="M1114 1111 c46 -48 169 -76 217 -51 33 18 21 30 -30 30 -27 0 -51 4
-53 10 -1 5 -38 16 -81 23 l-77 13 24 -25z"/>
<path d="M1560 1114 c0 -7 15 -12 35 -12 20 0 35 5 35 12 0 6 -15 11 -35 11
-20 0 -35 -5 -35 -11z"/>
<path d="M660 1090 c0 -5 -18 -10 -40 -10 -33 0 -41 -4 -46 -24 -3 -13 -4 -35
-2 -47 2 -20 10 -24 46 -27 28 -2 44 1 46 10 10 30 13 108 5 108 -5 0 -9 -4
-9 -10z m-20 -28 c0 -4 -5 -13 -11 -19 -9 -9 -15 -8 -25 2 -20 19 -17 25 11
25 14 0 25 -4 25 -8z m16 -58 c-3 -8 -19 -14 -36 -14 -26 0 -30 4 -30 27 0 26
1 26 15 7 14 -19 14 -18 32 6 15 22 18 23 21 7 2 -10 1 -25 -2 -33z"/>
<path d="M703 1065 c-3 -9 -4 -18 -1 -20 2 -2 79 -2 171 2 130 5 167 9 167 20
0 10 -34 13 -165 13 -140 0 -167 -2 -172 -15z"/>
<path d="M1643 1060 c-24 -11 -43 -26 -43 -35 0 -22 11 -19 55 20 46 39 45 40
-12 15z"/>
<path d="M2070 948 c0 -117 1 -120 18 -105 14 13 39 17 105 17 l87 0 0 105 0
105 -105 0 -105 0 0 -122z m69 71 c-14 -14 -24 -18 -31 -11 -15 15 0 32 28 32
l24 0 -21 -21z m61 -10 c0 -12 7 -19 20 -19 21 0 24 -10 14 -47 -5 -18 -14
-23 -40 -23 -39 0 -42 13 -22 79 13 40 28 46 28 10z m-50 -59 c0 -23 -4 -30
-20 -30 -16 0 -20 7 -20 30 0 23 4 30 20 30 16 0 20 -7 20 -30z"/>
<path d="M1150 1024 l-45 -34 -195 -6 c-178 -5 -203 -9 -201 -31 1 -4 84 -6
185 -4 l183 3 6 -29 c3 -15 5 -29 4 -30 -1 0 -82 -3 -180 -4 -98 -2 -182 -6
-187 -9 -5 -3 -10 -11 -12 -18 -2 -10 39 -13 200 -12 158 1 202 -2 202 -12 0
-7 3 -22 6 -33 5 -20 1 -20 -186 -17 -135 2 -196 -1 -206 -9 -25 -21 -15 -29
37 -29 l52 0 -6 -33 c-3 -19 -1 -40 4 -48 7 -12 9 -12 9 1 0 26 18 -4 22 -37
l3 -31 17 22 c15 21 15 26 -1 74 l-18 52 143 0 142 0 21 -36 c26 -43 26 -44 3
-44 -10 0 -21 -2 -24 -5 -6 -6 48 -297 61 -335 l9 -25 1 28 c1 15 5 27 10 27
5 0 3 12 -4 27 -22 44 -42 240 -27 264 15 23 1 89 -23 109 -9 8 -13 21 -9 32
3 10 -3 33 -14 51 -10 18 -21 53 -25 77 -6 43 -4 46 24 63 17 9 36 17 44 17
20 0 40 -30 41 -62 2 -40 40 -78 78 -78 18 0 54 15 86 35 82 51 111 67 142 76
34 9 35 3 4 -35 l-23 -28 25 -64 c31 -78 42 -78 13 0 -22 59 -20 81 10 96 31
17 40 -18 37 -142 l-3 -113 -27 -3 c-33 -4 -37 15 -11 56 l17 27 -27 -24 c-15
-14 -27 -35 -27 -48 0 -21 5 -23 44 -23 l44 0 47 -170 c42 -149 58 -192 69
-179 1 2 -17 76 -42 164 -40 148 -44 170 -46 295 -1 74 -8 154 -14 177 l-12
41 -63 -5 c-54 -4 -72 -11 -136 -54 -55 -37 -82 -49 -111 -49 -27 0 -39 5 -43
18 -2 9 -8 25 -12 35 -7 16 -3 17 32 11 40 -6 83 7 83 26 0 6 -29 10 -64 10
-63 0 -64 0 -78 34 l-13 35 -45 -35z"/>
<path d="M2424 955 c0 -49 1 -71 3 -48 2 23 2 64 0 90 -2 26 -3 8 -3 -42z"/>
<path d="M1736 953 c-15 -121 -36 -373 -36 -442 l0 -76 60 135 60 134 -25 26
-25 26 26 78 c21 63 24 82 15 102 -13 29 -12 29 63 3 65 -23 100 -48 121 -89
21 -40 55 -152 49 -161 -8 -13 -67 2 -86 22 -10 10 -15 26 -12 36 5 15 4 16
-5 3 -6 -8 -11 -24 -11 -34 0 -11 -7 -28 -16 -38 -17 -18 -76 -176 -95 -252
-13 -51 3 -67 95 -95 79 -24 76 -24 76 -12 0 5 -36 21 -81 36 -65 22 -79 30
-74 44 4 9 27 74 52 146 24 71 46 131 47 133 2 1 40 -10 85 -26 44 -16 81 -26
81 -23 0 19 -80 242 -95 265 -23 35 -73 60 -161 80 -39 8 -78 18 -86 21 -12 5
-17 -5 -22 -42z m62 -45 c2 -14 -5 -43 -14 -64 -16 -36 -18 -37 -22 -15 -6 39
8 113 21 108 7 -2 13 -15 15 -29z m2 -210 c0 -14 -39 -96 -49 -102 -12 -8 -15
80 -5 133 l7 31 23 -27 c13 -16 24 -31 24 -35z"/>
<path d="M1645 960 c8 -13 35 -13 55 0 11 7 5 10 -23 10 -23 0 -36 -4 -32 -10z"/>
<path d="M664 905 c-4 -8 -10 -12 -15 -9 -5 3 -23 3 -39 -1 -28 -6 -30 -10
-30 -51 l0 -44 44 0 c49 0 64 18 52 65 -3 13 -2 27 4 30 5 3 10 10 10 16 0 15
-20 10 -26 -6z m-24 -40 c-10 -12 -16 -13 -26 -4 -16 13 -18 1 -4 -21 7 -12
12 -12 29 4 21 19 21 19 21 -7 0 -24 -4 -27 -35 -27 -33 0 -35 2 -35 35 0 33
2 35 31 35 27 0 30 -2 19 -15z"/>
<path d="M434 735 c0 -55 1 -76 3 -47 2 29 2 74 0 100 -2 26 -3 2 -3 -53z"/>
<path d="M2167 795 c-4 -8 -3 -16 2 -19 16 -10 363 -8 373 2 26 26 -7 32 -187
32 -151 0 -184 -3 -188 -15z"/>
<path d="M1375 739 c-43 -21 -72 -45 -64 -53 10 -10 109 43 109 59 0 18 4 19
-45 -6z"/>
<path d="M733 713 c3 -10 11 -43 17 -73 16 -70 56 -150 75 -150 32 0 7 104
-47 191 -29 48 -54 66 -45 32z m77 -154 c19 -51 19 -53 1 -30 -10 14 -24 42
-31 64 -6 21 -14 46 -16 56 -10 32 26 -37 46 -90z"/>
<path d="M921 704 c-11 -15 -21 -35 -21 -44 0 -10 -7 -34 -16 -55 -21 -50 -12
-55 11 -5 10 22 21 37 26 35 7 -5 31 86 24 93 -1 2 -12 -9 -24 -24z"/>
<path d="M1420 700 l0 -30 -62 0 c-82 0 -65 -22 22 -28 l60 -4 0 46 c0 25 -4
46 -10 46 -5 0 -10 -13 -10 -30z"/>
<path d="M2220 711 c0 -30 37 -78 84 -107 l46 -29 0 -72 c0 -71 0 -71 -29 -78
-27 -6 -58 -32 -76 -64 -9 -16 -4 -13 54 26 43 30 69 29 116 -2 20 -15 40 -24
42 -21 9 9 -45 55 -71 62 -25 6 -26 9 -26 79 l0 73 50 32 c42 27 80 72 80 94
0 3 -33 3 -72 0 -49 -4 -94 -1 -135 9 -57 13 -63 13 -63 -2z m219 -37 c7 -6
-25 -38 -57 -56 -29 -17 -30 -17 -70 12 -22 16 -43 26 -46 23 -3 -4 -6 3 -6
15 0 22 2 22 88 16 48 -4 89 -8 91 -10z"/>
<path d="M675 648 c18 -60 47 -106 69 -110 l24 -5 -19 30 c-10 17 -15 35 -12
40 6 9 -45 67 -60 67 -4 0 -5 -10 -2 -22z"/>
<path d="M960 609 c-30 -16 -63 -40 -72 -52 -10 -12 -18 -17 -18 -12 -2 12
-18 -25 -19 -42 -2 -25 135 4 160 33 17 21 -3 17 -60 -12 -35 -17 -56 -22 -67
-16 -13 7 -9 15 27 44 64 51 81 56 29 9 l-45 -40 34 12 c47 17 126 108 94 107
-5 0 -33 -14 -63 -31z"/>
<path d="M679 532 c25 -17 102 -44 109 -38 5 5 -108 56 -122 55 -6 0 0 -8 13
-17z"/>
<path d="M1362 528 c-14 -14 -16 -62 -2 -87 21 -41 72 -32 84 14 14 56 -46
109 -82 73z m60 -33 c8 -19 8 -28 -2 -40 -27 -32 -67 -4 -56 40 8 33 43 33 58
0z"/>
<path d="M688 441 c3 -32 -2 -60 -13 -82 l-17 -34 21 20 c11 11 21 34 22 50 4
48 0 95 -8 95 -5 0 -6 -22 -5 -49z"/>
<path d="M981 485 c10 -9 112 -13 132 -5 16 6 -2 9 -57 9 -44 1 -77 -1 -75 -4z"/>
<path d="M2127 473 c-12 -11 -8 -48 7 -69 13 -17 14 -15 9 26 -6 51 -7 53 -16
43z"/>
<path d="M740 459 c0 -6 -4 -7 -10 -4 -6 3 -10 -4 -10 -17 0 -18 2 -20 10 -8
5 8 10 11 10 6 0 -5 7 -3 16 5 13 10 17 10 25 -2 8 -12 10 -12 18 0 8 12 12
12 25 2 13 -11 18 -10 30 1 12 13 9 15 -27 14 -23 -1 -52 2 -64 6 -14 5 -23 3
-23 -3z"/>
<path d="M903 458 c-13 -6 -23 -15 -23 -20 0 -13 18 -10 23 5 4 10 7 10 18 0
19 -19 28 -16 22 7 -6 22 -9 23 -40 8z"/>
<path d="M2057 440 c3 -10 13 -25 22 -32 13 -10 14 -10 4 2 -18 20 -16 33 3
26 14 -5 15 -4 4 9 -18 22 -39 19 -33 -5z"/>
<path d="M2024 435 c4 -13 2 -16 -9 -11 -9 3 -15 0 -15 -10 0 -8 5 -12 10 -9
6 4 16 2 23 -4 10 -7 12 -3 11 17 0 14 -7 28 -14 30 -9 3 -11 -1 -6 -13z"/>
<path d="M752 408 c-7 -7 -12 -18 -12 -26 0 -12 3 -12 16 -1 9 8 37 12 72 10
76 -3 92 -9 92 -32 0 -11 5 -17 10 -14 15 10 12 51 -6 66 -13 10 -17 10 -24
-2 -7 -10 -12 -11 -21 -2 -9 9 -16 9 -32 0 -15 -9 -21 -9 -24 1 -4 10 -8 10
-19 1 -10 -8 -18 -8 -27 0 -10 8 -17 7 -25 -1z"/>
<path d="M451 392 c-1 -30 24 -78 44 -86 35 -13 38 -5 7 22 -18 15 -37 41 -42
57 -7 25 -8 26 -9 7z"/>
<path d="M2170 320 c0 -25 16 -24 -949 -25 -627 0 -685 -1 -694 -17 -8 -12 -7
-21 2 -32 12 -15 113 -16 1045 -14 l1031 3 3 24 c4 27 -12 41 -49 41 -19 0
-26 5 -25 18 1 15 -15 17 -181 20 -178 2 -183 2 -183 -18z m319 -6 c71 -14 22
-24 -123 -24 -158 0 -208 6 -170 21 23 9 250 11 293 3z"/>
</g>
</svg>
