<?xml version="1.0" standalone="no"?>
<!DOCTYPE svg PUBLIC "-//W3C//DTD SVG 20010904//EN"
 "http://www.w3.org/TR/2001/REC-SVG-20010904/DTD/svg10.dtd">
<svg version="1.0" xmlns="http://www.w3.org/2000/svg"
 width="243.000000pt" height="208.000000pt" viewBox="0 0 243.000000 208.000000"
 preserveAspectRatio="xMidYMid meet">
<metadata>
Created by potrace 1.10, written by Peter Selinger 2001-2011
</metadata>
<g transform="translate(0.000000,208.000000) scale(0.100000,-0.100000)"
fill="#000000" stroke="none">
<path d="M1065 1870 c-11 -5 -35 -9 -52 -9 -18 -1 -33 -5 -33 -11 0 -5 5 -10
10 -10 6 0 10 -6 10 -14 0 -9 10 -13 25 -12 16 0 23 6 20 14 -3 7 -1 10 4 7 5
-3 22 6 37 20 27 25 18 32 -21 15z"/>
<path d="M590 1791 c0 -5 19 -15 42 -23 48 -15 66 -46 54 -93 -5 -21 -12 -26
-26 -22 -22 6 -70 -27 -70 -47 0 -7 -33 -22 -72 -35 -40 -13 -89 -30 -108 -39
-26 -11 -110 -24 -110 -16 0 21 29 65 55 83 36 24 38 41 5 41 -26 0 -43 -30
-70 -120 -13 -41 -31 -93 -41 -116 -11 -22 -19 -53 -19 -68 0 -15 -5 -36 -10
-46 -7 -14 -5 -34 11 -76 16 -42 20 -68 15 -104 -4 -28 -2 -51 3 -55 6 -3 9
-11 7 -18 -1 -7 -1 -9 1 -4 3 4 9 5 13 2 5 -3 5 8 -1 24 -7 19 -7 36 -1 47 6
10 4 30 -5 57 -8 22 -12 46 -9 54 3 8 1 11 -4 8 -6 -3 -10 -2 -10 4 0 16 17
22 28 8 5 -6 19 -46 31 -89 25 -92 65 -185 92 -214 16 -17 20 -32 17 -80 l-3
-59 -37 38 c-21 21 -38 44 -38 52 0 7 -7 15 -14 18 -8 3 -23 21 -32 39 -24 48
-51 69 -93 75 -87 12 -140 -103 -89 -191 32 -55 75 -77 156 -83 37 -2 86 -9
110 -15 l42 -11 -1 -171 -1 -171 -24 51 c-13 28 -26 73 -30 100 -11 100 -16
115 -46 149 -45 53 -108 45 -108 -12 0 -33 59 -144 73 -136 6 4 8 0 4 -10 -9
-23 22 -54 35 -35 7 10 8 9 4 -4 -3 -10 0 -21 7 -25 7 -5 20 -17 29 -28 16
-20 16 -21 -3 -22 -12 -1 -17 2 -13 9 5 7 1 9 -9 5 -10 -4 -14 -2 -11 7 6 15
-116 80 -141 74 -38 -7 -44 -58 -12 -102 10 -14 33 -20 108 -26 98 -8 123 -14
150 -36 12 -11 65 -14 223 -15 l208 -1 -6 -30 c-3 -17 -6 -43 -6 -59 0 -19 -5
-29 -14 -29 -8 0 -18 -5 -21 -10 -4 -6 8 -10 29 -10 31 0 36 3 36 23 0 13 14
76 30 140 32 125 36 152 20 127 -9 -13 -14 -7 -11 13 0 4 -5 7 -12 7 -8 0 -7
4 3 10 12 8 13 11 1 19 -7 5 -9 11 -4 14 5 3 7 43 6 89 -4 105 -4 108 -17 108
-6 0 -5 5 2 12 7 7 38 14 69 15 88 6 84 5 71 20 -7 9 -13 10 -18 4 -4 -7 -17
-8 -40 -1 -26 7 -50 6 -93 -5 -71 -18 -62 -18 -81 1 -10 10 -16 33 -16 66 0
35 -4 48 -12 45 -9 -2 -13 -25 -13 -66 0 -55 4 -66 25 -83 16 -13 35 -18 56
-16 l32 4 6 -58 c4 -32 4 -64 0 -70 -4 -6 -8 -30 -9 -52 -1 -23 -5 -79 -9
-126 l-8 -85 -202 3 c-110 1 -207 5 -213 7 -10 3 -13 113 -13 505 l0 500 415
0 415 0 1 -47 c1 -61 11 -95 28 -101 11 -4 12 0 6 14 -9 20 -8 87 1 117 4 13
0 20 -16 24 -24 6 -25 48 0 48 21 0 50 26 43 38 -4 6 1 8 10 4 11 -4 17 -1 17
7 0 22 37 26 56 5 9 -11 29 -18 43 -18 26 2 26 2 -2 6 -25 4 -28 7 -22 34 8
33 5 34 -35 14 -22 -11 -30 -12 -33 -2 -3 7 -6 5 -6 -5 -1 -29 -16 -21 -29 16
-13 36 -38 63 -48 53 -4 -3 5 -20 20 -37 30 -37 32 -47 10 -78 -12 -17 -25
-22 -63 -22 l-48 0 -2 68 c-2 59 -5 70 -31 97 -25 25 -39 30 -95 33 -64 4 -71
1 -66 -30 0 -5 -5 -8 -13 -8 -9 0 -15 -16 -19 -45 -2 -25 -12 -54 -21 -64 -18
-20 -21 -31 -7 -31 5 0 14 14 22 31 12 30 13 30 26 13 30 -42 44 -54 60 -53
11 0 13 3 6 6 -7 2 -13 11 -13 19 0 8 -5 14 -11 14 -6 0 -8 7 -5 17 4 10 4 14
0 11 -11 -11 -45 39 -38 56 3 8 14 18 25 21 10 4 19 10 19 15 0 17 76 -4 98
-27 18 -20 22 -21 22 -7 0 37 9 6 15 -48 7 -74 21 -112 39 -105 8 3 17 0 19
-7 4 -10 -16 -13 -91 -13 -53 0 -106 3 -117 7 -17 6 -16 8 10 16 20 6 -71 11
-280 14 -258 4 -310 7 -307 19 2 8 -9 27 -24 42 -29 31 -23 39 10 14 11 -8 25
-15 30 -15 6 1 -1 8 -16 16 -16 8 -28 16 -28 18 0 3 37 17 83 32 45 15 88 29
95 32 6 2 12 -3 12 -11 0 -25 41 -56 126 -97 65 -30 81 -34 79 -21 -1 9 -10
15 -20 13 -12 -3 -16 1 -12 12 4 9 -1 17 -14 21 -10 4 -19 12 -19 18 0 8 -3 8
-9 -1 -7 -11 -14 -11 -42 4 -19 10 -37 17 -40 16 -4 -1 -5 9 -3 21 2 12 2 16
-2 10 -4 -10 -9 -10 -20 1 -19 20 -18 30 3 22 10 -4 14 -4 10 0 -4 4 2 14 13
21 11 8 17 20 14 26 -4 7 -4 9 1 5 4 -4 14 -3 22 3 10 9 13 8 13 0 0 -7 4 -10
9 -6 6 3 15 -4 21 -15 6 -12 18 -19 25 -16 7 2 21 -6 30 -20 9 -14 20 -22 25
-19 11 7 50 -48 50 -70 0 -11 -19 1 -61 39 -54 49 -111 77 -125 63 -3 -3 8 -8
25 -12 17 -4 31 -11 31 -16 0 -5 4 -8 9 -6 16 4 132 -104 125 -115 -4 -6 -2
-8 3 -5 6 4 8 17 6 31 -3 16 4 37 22 63 22 31 26 33 21 13 -3 -14 -8 -45 -11
-70 -5 -43 -4 -42 8 10 7 30 18 65 25 77 14 25 16 45 2 23 -5 -8 -12 -12 -15
-8 -8 8 24 58 37 58 6 0 5 -6 -2 -15 -9 -11 -9 -15 -1 -15 6 0 14 6 17 14 3 9
13 12 27 8 20 -5 20 -4 8 11 -33 41 -98 -2 -122 -82 l-12 -39 -56 58 c-36 36
-68 60 -89 64 -17 4 -32 11 -32 15 0 11 45 51 57 51 13 0 43 33 43 48 0 23
-30 12 -44 -16 -8 -16 -22 -34 -30 -41 -14 -12 -16 -10 -16 9 0 28 -61 90 -89
90 -12 0 -21 -4 -21 -9z m-235 -331 c4 -26 33 -86 34 -70 1 8 -6 27 -13 43
-12 21 -12 27 -2 27 28 0 42 -34 38 -90 -4 -46 -7 -51 -13 -30 -6 17 -7 4 -5
-38 2 -34 0 -65 -5 -68 -14 -8 -10 -24 6 -24 11 0 15 -12 15 -47 l0 -46 -24
22 c-17 16 -23 31 -20 49 3 18 1 22 -4 14 -6 -9 -11 10 -15 53 -4 40 -13 72
-22 82 -13 13 -14 18 -4 24 10 6 9 10 -4 15 -10 4 -16 13 -13 21 4 9 2 11 -6
7 -8 -5 -9 -2 -5 9 3 10 2 17 -4 17 -6 0 -1 11 12 25 26 27 51 29 54 5z m-50
-121 c25 -50 35 -83 35 -116 l0 -46 -25 23 c-13 12 -29 41 -34 64 -9 34 -10
35 -7 9 1 -18 1 -33 -1 -33 -2 0 -10 15 -18 33 -9 23 -10 36 -3 45 9 11 13 11
20 0 7 -10 9 -10 5 2 -2 8 -11 14 -21 12 -9 -2 -16 1 -16 6 0 13 21 72 26 72
2 0 19 -32 39 -71z m625 61 c11 -7 5 -9 -20 -5 -19 3 -29 3 -22 -1 26 -12 10
-19 -40 -16 -29 2 -57 9 -63 14 -7 7 -1 9 20 6 17 -3 41 -2 55 2 36 11 53 11
70 0z m-533 -295 c14 -29 17 -184 3 -165 -37 52 -100 212 -100 254 0 13 86
-66 97 -89z m-231 -104 c-3 -5 13 -12 37 -15 36 -6 46 -13 70 -53 22 -36 25
-48 16 -59 -10 -12 -15 -12 -36 2 -14 8 -26 14 -28 12 -2 -2 10 -12 26 -23 19
-13 28 -26 25 -37 -2 -10 1 -16 8 -15 6 1 10 -4 9 -10 -2 -7 4 -13 14 -13 15
0 15 1 0 18 -20 22 -22 36 -4 27 6 -4 4 0 -5 8 -13 10 -14 17 -6 25 13 13 101
-76 93 -95 -2 -7 0 -13 5 -13 6 0 10 -4 10 -9 0 -4 -24 -3 -52 3 -29 7 -74 11
-100 10 -26 -1 -46 2 -43 6 3 5 -10 13 -29 20 -28 9 -33 15 -28 32 4 17 2 20
-11 15 -19 -7 -27 12 -27 69 0 31 4 43 11 38 7 -4 10 -1 7 7 -3 8 4 24 15 37
21 22 33 30 23 13z m124 -400 c5 -20 10 -43 10 -51 0 -13 -1 -13 -10 0 -5 8
-10 11 -11 5 -1 -20 -18 31 -19 60 -1 26 -3 27 -10 10 -8 -19 -9 -19 -9 3 -1
12 -7 22 -13 22 -9 0 -8 3 2 10 20 13 47 -14 60 -59z m39 -68 c1 -23 -22 -32
-34 -13 -3 6 -1 10 6 10 8 0 10 14 6 48 l-6 47 14 -35 c7 -19 14 -45 14 -57z
m-92 -86 c6 0 9 -7 5 -15 -3 -9 -1 -13 5 -9 14 9 44 -2 37 -14 -8 -14 -78 -1
-91 17 -15 21 -6 38 16 28 9 -3 21 -7 28 -7z"/>
<path d="M1514 1742 c-54 -22 -74 -40 -74 -65 0 -11 -8 -29 -17 -40 -13 -15
-14 -18 -3 -12 8 5 21 17 28 27 9 12 27 18 55 19 39 1 40 2 12 8 -29 7 -29 7
-7 15 12 4 22 15 23 24 0 14 2 13 9 -3 9 -20 9 -20 10 0 1 19 1 19 11 2 6 -10
8 -21 5 -24 -5 -6 18 -33 29 -33 3 0 3 5 -1 12 -4 7 -10 28 -13 47 -7 42 -15
44 -67 23z m6 -19 c-1 -11 -70 -54 -70 -43 0 9 50 49 63 50 4 0 7 -3 7 -7z"/>
<path d="M570 1721 c0 -5 16 -18 35 -30 39 -23 40 -22 23 14 -7 16 -19 25 -35
25 -12 0 -23 -4 -23 -9z"/>
<path d="M1333 1697 c-30 -21 -62 -72 -50 -83 2 -3 15 11 27 30 28 47 40 45
40 -4 0 -22 3 -40 8 -40 4 0 6 20 6 45 -2 43 -1 45 32 51 48 9 53 24 7 23 -21
0 -52 -11 -70 -22z"/>
<path d="M1625 1690 c-12 -19 37 -74 98 -112 24 -15 -5 -21 -42 -8 -41 13 -61
8 -61 -16 0 -18 63 -18 104 -1 29 13 51 11 221 -15 58 -9 75 -16 102 -43 20
-20 33 -43 33 -58 0 -33 -24 -89 -35 -80 -4 5 -5 3 -2 -3 4 -6 0 -20 -8 -30
-13 -17 -14 -16 -15 23 0 36 3 41 18 36 9 -3 5 3 -10 15 -14 12 -31 22 -36 22
-6 0 -13 14 -17 30 -7 32 -30 50 -64 50 -20 0 -31 -17 -23 -37 2 -7 23 -18 46
-25 37 -12 23 -13 -143 -16 -175 -2 -184 -1 -198 18 -8 11 -27 27 -43 35 -25
13 -29 13 -41 -2 -12 -14 -11 -15 6 -10 23 7 60 -17 50 -32 -3 -6 0 -9 7 -6
18 7 60 -33 56 -53 -2 -8 -9 -17 -17 -20 -9 -3 -11 0 -6 9 5 8 5 11 0 7 -10
-10 -47 10 -40 22 7 12 -54 3 -70 -10 -8 -7 -45 -10 -89 -9 -60 3 -73 6 -64
16 7 9 39 13 100 13 61 0 87 3 83 11 -5 7 -41 10 -98 8 -86 -3 -93 -5 -114
-30 -13 -15 -23 -30 -23 -33 0 -3 69 -6 154 -6 l153 0 7 -39 c3 -22 13 -41 22
-45 15 -6 16 0 11 39 l-7 45 190 0 190 0 0 -451 c0 -433 1 -450 18 -429 9 12
55 47 102 78 59 39 86 64 88 80 8 55 -88 34 -151 -34 l-42 -45 0 112 0 111 55
-6 c30 -3 78 -8 105 -12 41 -5 55 -3 74 13 19 15 23 25 17 46 -3 15 -11 27
-17 27 -6 0 -8 -7 -5 -16 5 -13 4 -14 -7 -5 -8 6 -41 13 -73 15 -32 2 -48 2
-34 0 51 -8 100 -25 100 -35 0 -6 5 -7 12 -3 7 5 8 3 3 -5 -4 -8 -18 -11 -36
-7 -15 3 -31 1 -34 -4 -9 -15 -28 -12 -22 3 3 9 -11 12 -55 11 -53 -1 -59 0
-55 17 3 11 -1 19 -12 21 -12 3 -8 8 14 21 l30 16 -27 1 c-33 0 -34 6 -10 33
16 19 16 20 0 14 -12 -4 -18 -1 -18 8 0 8 6 15 13 15 8 0 7 4 -3 10 -10 6 -11
10 -2 10 6 0 12 9 12 20 0 11 -6 20 -12 20 -9 0 -10 2 -2 8 7 4 12 43 13 91 1
47 4 88 7 92 2 4 -2 14 -10 22 -13 13 -12 16 8 25 33 15 52 -5 29 -30 -15 -17
-15 -18 2 -18 10 0 16 3 12 6 -9 9 25 44 36 37 6 -3 7 -1 4 4 -4 6 0 16 8 23
8 7 15 18 15 26 0 12 9 22 70 77 35 30 24 -7 -14 -47 -30 -33 -46 -75 -50
-136 -1 -8 -19 -21 -42 -28 -46 -14 -70 -48 -59 -81 10 -32 28 -26 20 8 -7 33
1 41 60 56 26 6 43 18 50 32 5 12 14 24 20 26 5 2 2 3 -8 1 -43 -6 -31 36 35
119 62 79 46 116 -42 94 -53 -13 -80 -43 -80 -89 0 -21 5 -38 10 -38 9 0 11 6
14 43 1 6 7 18 14 25 7 8 10 17 8 21 -3 4 13 12 34 18 22 5 37 6 34 2 -3 -5
-13 -9 -22 -10 -14 0 -13 -2 3 -9 16 -7 17 -9 3 -9 -9 -1 -27 -15 -40 -31 -56
-74 -67 -83 -82 -71 -10 8 -21 8 -40 1 -15 -5 -29 -10 -32 -10 -12 0 0 34 26
74 62 91 78 266 25 266 -21 0 -18 -24 5 -45 20 -18 27 -69 11 -79 -4 -3 -13 6
-20 20 -16 36 -84 63 -182 71 -90 9 -87 6 -105 93 -7 33 -22 50 -45 50 -28 0
-23 -15 16 -54 33 -34 47 -76 25 -76 -21 0 -75 28 -91 46 -9 11 -19 31 -23 45
-6 28 -31 45 -41 29z m258 -307 c-24 -2 -62 -2 -85 0 -24 2 -5 4 42 4 47 0 66
-2 43 -4z m295 -770 c-10 -2 -15 -10 -11 -19 3 -8 2 -14 -3 -13 -20 3 -33 -3
-65 -31 -19 -16 -38 -30 -42 -30 -12 0 13 41 29 47 8 3 13 12 10 19 -3 7 -1
16 4 19 6 4 10 -1 10 -10 0 -14 4 -14 28 4 15 11 34 20 42 20 11 -1 11 -2 -2
-6z"/>
<path d="M1590 1642 c0 -4 5 -13 12 -20 8 -8 8 -15 -1 -26 -8 -10 -9 -16 -1
-21 14 -9 23 20 16 50 -6 23 -26 36 -26 17z"/>
<path d="M1416 1591 c-9 -10 -16 -28 -16 -42 1 -21 2 -22 13 -8 13 17 77 15
77 -2 0 -5 6 -9 14 -9 15 0 30 27 27 49 -1 8 3 17 9 21 6 4 -15 8 -48 8 -45 1
-64 -3 -76 -17z"/>
<path d="M1213 1585 c-17 -18 -16 -25 1 -25 8 0 16 6 19 14 3 8 16 16 29 19
19 3 17 4 -7 5 -16 1 -36 -5 -42 -13z"/>
<path d="M1581 1536 c-9 -11 -9 -15 1 -19 11 -5 11 -7 0 -15 -11 -7 -10 -11 1
-20 12 -10 14 -5 14 28 0 45 0 45 -16 26z"/>
<path d="M1471 1491 c-7 -5 -10 -14 -7 -20 10 -16 20 -14 34 9 10 16 10 20 0
20 -7 0 -19 -4 -27 -9z"/>
<path d="M2274 1485 c-4 -9 -2 -21 4 -27 15 -15 44 -1 40 19 -4 23 -36 29 -44
8z"/>
<path d="M475 1480 c-14 -5 -13 -8 10 -18 35 -16 65 -15 65 2 0 15 -48 26 -75
16z"/>
<path d="M507 1303 c18 -2 50 -2 70 0 21 2 7 4 -32 4 -38 0 -55 -2 -38 -4z"/>
<path d="M660 1280 c10 -6 11 -10 3 -10 -10 0 -13 -29 -11 -117 1 -86 3 -106
8 -73 4 25 8 -104 8 -286 1 -182 -1 -346 -4 -363 l-6 -31 -94 0 c-51 0 -95 -3
-97 -7 -3 -5 40 -7 95 -5 76 3 103 0 109 -10 5 -7 8 176 8 407 -1 231 -5 409
-9 395 -7 -23 -8 -23 -9 -3 -1 12 4 25 9 28 6 3 10 24 10 46 0 31 -4 39 -17
39 -15 0 -16 -2 -3 -10z"/>
<path d="M715 1280 c-3 -6 -3 -19 0 -31 5 -15 14 -19 33 -17 14 2 27 9 30 16
3 9 -3 11 -22 6 -33 -8 -35 13 -3 26 21 8 21 9 -5 9 -15 1 -30 -4 -33 -9z"/>
<path d="M812 1260 c-12 -20 -10 -20 190 -20 112 0 208 4 215 8 6 4 -67 6
-163 4 -96 -2 -174 0 -174 5 0 4 60 7 134 5 74 -2 149 1 168 7 24 7 -19 9
-162 10 -185 1 -196 0 -208 -19z"/>
<path d="M770 1183 c-24 -3 -48 -10 -52 -16 -10 -16 -10 -154 0 -161 4 -2 6
26 4 64 -4 60 -2 69 14 73 18 4 18 5 1 6 -36 2 -5 21 35 21 35 0 39 -2 28 -15
-10 -12 -10 -15 4 -15 10 0 16 9 16 25 0 14 -1 24 -2 23 -2 -1 -23 -3 -48 -5z"/>
<path d="M938 1183 c34 -2 90 -2 125 0 34 2 6 3 -63 3 -69 0 -97 -1 -62 -3z"/>
<path d="M1154 980 c0 -102 2 -143 3 -92 2 50 2 134 0 185 -1 50 -3 9 -3 -93z"/>
<path d="M154 1115 c-7 -18 3 -35 22 -35 20 0 30 30 13 41 -20 12 -29 11 -35
-6z"/>
<path d="M808 1075 c-1 -30 0 -55 5 -55 4 0 7 25 7 55 0 71 -7 71 -12 0z"/>
<path d="M450 1088 c0 -5 44 -7 98 -6 100 1 88 5 -31 10 -37 2 -67 0 -67 -4z"/>
<path d="M2155 1071 c-22 -10 -46 -25 -54 -34 -12 -15 -10 -17 24 -17 31 0 37
3 33 18 -4 15 4 17 74 19 45 1 76 -3 72 -8 -3 -5 1 -9 8 -9 10 0 9 -3 -2 -10
-12 -8 -12 -10 3 -16 9 -3 17 -15 17 -26 0 -10 -4 -17 -8 -14 -4 2 -7 -7 -7
-22 2 -35 -42 -84 -66 -77 -36 12 -118 22 -113 14 2 -4 -4 -10 -13 -12 -10 -3
0 -3 22 -2 22 2 58 -3 80 -10 35 -12 43 -12 63 1 26 17 61 87 62 122 0 31 -26
79 -49 92 -30 16 -102 12 -146 -9z"/>
<path d="M513 1053 c26 -2 67 -2 90 0 23 2 2 3 -48 3 -49 0 -68 -1 -42 -3z"/>
<path d="M518 1023 c23 -2 61 -2 85 0 23 2 4 4 -43 4 -47 0 -66 -2 -42 -4z"/>
<path d="M2265 990 c-16 -10 -65 -25 -107 -35 -43 -9 -81 -21 -84 -27 -5 -8
-1 -9 11 -4 10 3 48 14 84 23 36 9 82 24 102 34 20 10 40 15 44 11 5 -4 5 -1
1 6 -9 15 -14 15 -51 -8z"/>
<path d="M724 971 c-11 -11 -2 -21 22 -21 14 0 23 -4 20 -8 -2 -4 -1 -14 5
-22 7 -12 9 -10 9 8 0 15 6 22 20 22 11 0 20 6 20 13 0 11 -85 19 -96 8z"/>
<path d="M1413 974 c3 -3 31 -9 63 -14 33 -4 68 -11 79 -14 11 -4 7 0 -10 7
-29 14 -143 32 -132 21z"/>
<path d="M1601 890 c10 -67 33 -106 79 -136 l40 -27 0 -88 0 -89 48 1 c41 0
44 2 22 10 -31 13 -30 11 -40 53 -5 23 -4 36 2 36 6 0 5 6 -2 15 -10 12 -10
15 1 15 11 0 11 2 -1 10 -13 9 -13 11 0 20 11 7 11 10 2 10 -7 0 -11 4 -8 9 3
5 -4 11 -15 14 -17 5 -19 9 -10 26 10 17 9 20 -5 14 -11 -4 -15 -3 -10 5 3 6
-2 16 -13 21 -24 14 -61 72 -61 99 0 11 -8 22 -18 24 -17 5 -18 1 -11 -42z"/>
<path d="M1809 904 c-4 -43 -3 -106 2 -110 4 -2 21 1 38 7 25 9 31 16 31 40 0
19 -6 32 -17 36 -10 3 -26 13 -35 21 -10 8 -18 11 -19 6z"/>
<path d="M897 893 c-14 -14 -6 -31 18 -37 16 -4 25 -13 25 -26 0 -24 8 -25 32
-3 17 15 18 15 18 -5 0 -21 11 -26 47 -25 7 1 11 -2 9 -6 -3 -4 0 -13 5 -21 8
-13 10 -13 20 0 8 12 9 9 3 -10 -8 -31 -34 -61 -45 -54 -5 3 -5 -5 0 -18 10
-27 -10 -94 -23 -81 -5 4 -6 3 -2 -4 3 -6 2 -14 -4 -18 -5 -3 -10 -1 -10 6 0
7 -3 9 -7 5 -5 -4 0 -14 11 -21 18 -13 17 -14 -8 -21 -24 -6 -38 -34 -16 -34
6 0 10 -5 10 -11 0 -8 -5 -8 -15 1 -18 15 -18 17 -14 -95 2 -49 4 -123 4 -162
0 -66 2 -73 20 -73 18 0 20 7 22 73 1 39 6 128 10 197 8 109 12 130 33 158 15
20 24 45 23 67 -1 25 4 36 18 40 11 4 19 16 19 29 0 28 -59 106 -80 106 -8 0
-26 12 -39 25 -22 24 -69 34 -84 18z"/>
<path d="M1700 860 c0 -28 6 -45 20 -57 20 -18 26 -38 13 -46 -5 -2 -3 -2 4
-1 6 2 17 -4 24 -12 9 -12 15 -12 27 -2 13 11 15 10 9 -4 -4 -12 -2 -15 7 -12
8 3 18 -8 25 -28 7 -18 17 -41 22 -50 5 -10 6 -18 2 -18 -5 0 -9 -17 -10 -38
-1 -28 1 -32 7 -17 7 15 9 10 9 -22 1 -23 -3 -44 -8 -48 -5 -3 -13 -20 -17
-38 -7 -30 -8 -31 -13 -8 -8 30 -24 37 -44 17 -8 -8 -18 -12 -22 -8 -4 4 -5
-4 -3 -17 1 -13 -2 -26 -9 -28 -12 -4 -11 55 2 100 7 21 6 21 -11 5 -13 -13
-19 -38 -22 -103 l-5 -85 -343 0 c-233 0 -344 -3 -344 -10 0 -8 109 -10 345
-8 l346 3 11 -42 c5 -23 16 -48 24 -54 8 -6 14 -15 14 -19 0 -13 -58 -32 -71
-24 -7 4 -10 3 -5 -4 5 -8 112 -6 123 3 2 1 -6 19 -16 41 -10 21 -21 53 -22
69 -4 26 -1 30 23 33 22 3 31 -4 51 -35 13 -21 32 -44 41 -52 13 -11 14 -16 4
-29 -11 -13 -8 -14 22 -7 19 4 36 9 38 10 2 2 -13 25 -32 53 -20 27 -36 51
-36 53 0 3 27 4 61 4 66 0 95 20 83 58 -6 19 -3 19 63 13 81 -8 120 5 129 41
15 57 -48 69 -145 27 l-60 -26 -3 -47 -3 -46 -67 -3 -67 -3 -7 47 c-4 29 -2
60 5 80 16 45 17 160 2 213 -14 50 -69 111 -98 111 -23 0 -43 38 -43 80 0 20
-5 30 -15 30 -11 0 -15 -11 -15 -40z m114 -498 c7 -19 4 -22 -24 -22 l-31 0 7
48 c4 26 11 58 17 72 10 23 11 21 17 -25 4 -28 10 -61 14 -73z m356 68 c-20
-13 -60 -13 -60 0 0 6 17 10 38 10 27 0 33 -3 22 -10z"/>
<path d="M1330 840 c0 -19 7 -20 128 -20 153 0 151 19 -3 22 l-100 2 105 6
105 6 -117 2 c-112 2 -118 1 -118 -18z"/>
<path d="M1340 703 c0 -5 57 -7 127 -5 205 4 221 8 41 10 -93 1 -168 -1 -168
-5z"/>
<path d="M134 679 c-3 -6 0 -17 7 -25 18 -17 44 -2 36 20 -7 18 -33 21 -43 5z"/>
<path d="M1195 670 l80 -6 -70 -4 c-93 -4 -92 -4 -101 -13 -5 -4 34 -6 86 -5
77 2 95 6 95 18 0 12 -17 15 -85 16 l-85 1 80 -7z"/>
<path d="M733 655 c0 -8 9 -15 19 -15 10 0 18 7 18 15 0 8 -8 15 -18 15 -10 0
-19 -7 -19 -15z"/>
<path d="M1330 553 c0 -101 2 -113 19 -123 12 -6 84 -9 178 -8 l158 2 -164 6
-165 5 -8 30 c-4 16 -6 63 -5 103 2 40 -1 78 -5 85 -4 6 -8 -38 -8 -100z"/>
<path d="M1225 588 c-27 -5 -69 -6 -93 -3 -25 3 -41 1 -37 -4 3 -5 -3 -12 -12
-14 -14 -4 -13 -5 4 -6 12 0 24 5 26 12 4 10 6 10 6 0 1 -9 25 -13 86 -13 47
0 85 3 85 8 -1 22 -18 27 -65 20z"/>
<path d="M723 575 c0 -20 103 -19 111 2 4 10 -8 13 -53 13 -45 0 -58 -3 -58
-15z"/>
<path d="M720 495 c0 -11 12 -15 45 -15 35 0 43 3 39 15 -4 10 -20 15 -45 15
-28 0 -39 -4 -39 -15z"/>
<path d="M1058 504 c6 -3 10 -10 6 -15 -3 -5 43 -9 111 -9 89 0 116 3 113 13
-3 8 -39 13 -124 14 -65 1 -113 -1 -106 -3z"/>
<path d="M513 443 c26 -2 67 -2 90 0 23 2 2 3 -48 3 -49 0 -68 -1 -42 -3z"/>
<path d="M671 262 c-6 -12 -6 -23 1 -33 8 -11 9 -11 4 3 -3 10 -1 20 4 23 4 3
11 -13 15 -35 6 -38 9 -40 41 -40 37 0 39 3 49 63 5 32 3 37 -13 37 -23 0 -46
-25 -38 -39 4 -5 2 -12 -4 -16 -6 -4 -10 5 -10 20 0 15 -4 24 -10 20 -5 -3
-10 -1 -10 4 0 17 -18 13 -29 -7z"/>
<path d="M1974 179 c-3 -6 -15 -8 -27 -5 -11 3 -16 1 -11 -4 11 -11 144 0 144
11 0 13 -98 11 -106 -2z"/>
</g>
</svg>
